<svg width="1512" height="582" viewBox="0 0 1512 582" fill="none" xmlns="http://www.w3.org/2000/svg">
<g id="background-image">
<path id="Vector" fill-rule="evenodd" clip-rule="evenodd" d="M1513.54 577.998L1450.33 513.503C1387.12 449.008 1232.59 515.675 1106.23 419C979.875 322.324 899.248 460.39 773.065 444.5C646.882 428.611 461.635 209.29 335.692 306.502C209.749 403.713 125.562 419.373 62.6592 500.293L-0.243455 581.213L-1.48028 -0.447371L61.5941 -0.581314C124.669 -0.715257 250.817 -0.983144 376.966 -1.25103C503.115 -1.51892 629.264 -1.7868 755.413 -2.05469C881.562 -2.32258 1007.71 -2.59047 1133.86 -2.85835C1260.01 -3.12624 1386.16 -3.39413 1449.23 -3.52807L1512.31 -3.66201L1513.54 577.998Z" fill="#FFE8FF" fill-opacity="0.8"/>
<path id="Vector_2" fill-rule="evenodd" clip-rule="evenodd" d="M1512.73 297.427L1449.62 311.849C1386.52 326.27 1260.32 355.113 1134.07 362.498C1007.83 369.883 881.548 355.81 755.226 320.279C628.903 284.748 502.541 227.758 376.245 206.533C249.949 185.307 123.719 199.844 60.6035 207.113L-2.51161 214.382L-2.51099 -0.895769L60.2214 -0.31533C123.35 -0.431483 249.606 -0.663789 375.863 -0.896095C502.119 -1.1284 628.376 -1.36071 754.633 -1.59301C880.889 -1.82532 1007.15 -2.05762 1133.4 -2.28993C1259.66 -2.52223 1385.92 -2.75454 1449.04 -2.87069L1512.17 -2.98685L1512.45 147.22L1512.73 297.427Z" fill="#8958A3" fill-opacity="0.4"/>
<path id="Vector_3" fill-rule="evenodd" clip-rule="evenodd" d="M1512.18 14.9306L1475.24 34.2126C1439.58 53.4903 1366.98 92.0499 1294.32 111.452C1220.38 130.858 1147.65 131.103 1074.9 123.684C1002.15 116.265 929.369 101.184 856.628 97.5966C783.888 94.0094 709.911 101.921 637.183 102.166C564.456 102.41 491.703 94.9914 419.014 106.73C346.325 118.469 273.701 149.366 199.749 164.941C127.074 180.511 54.3463 180.756 18.6206 180.876L-18.3811 181L-19 -2.91305L18.0017 -3.0374C53.7274 -3.15746 126.455 -3.40187 199.182 -3.64627C273.185 -3.89497 345.913 -4.13938 418.64 -4.38378C491.368 -4.62819 564.095 -4.8726 636.822 -5.11701C709.55 -5.36142 783.553 -5.61011 856.28 -5.85452C929.008 -6.09893 1001.74 -6.34333 1074.46 -6.58774C1147.19 -6.83215 1219.92 -7.07656 1293.92 -7.32525C1366.65 -7.56966 1439.38 -7.81407 1475.1 -7.93413L1512.1 -8.05848L1512.18 14.9306Z" fill="#8958A3" fill-opacity="0.4"/>
</g>
</svg>
