<svg width="1512" height="582" viewBox="0 0 1512 582" fill="none" xmlns="http://www.w3.org/2000/svg">
<g id="background-image">
<path id="Vector" fill-rule="evenodd" clip-rule="evenodd" d="M1512 578L1448.91 513.505C1385.83 449.01 1231.6 515.676 1105.5 419C979.397 322.324 898.931 460.39 773 444.5C647.069 428.61 462.191 209.289 336.5 306.5C210.809 403.711 126.79 419.37 64.0128 500.29L1.23603 581.21L1.26199e-05 -0.450028L62.9485 -0.583792C125.897 -0.717556 251.794 -0.985084 377.691 -1.25261C503.588 -1.52014 629.485 -1.78767 755.382 -2.0552C881.279 -2.32272 1007.18 -2.59025 1133.07 -2.85778C1258.97 -3.12531 1384.87 -3.39284 1447.82 -3.5266L1510.76 -3.66036L1512 578Z" fill="#FFE8FF" fill-opacity="0.8"/>
<path id="Vector_2" fill-rule="evenodd" clip-rule="evenodd" d="M1511.88 299.837L1448.86 314.259C1385.84 328.68 1259.8 357.523 1133.71 364.908C1007.63 372.293 881.513 358.22 755.352 322.689C629.192 287.157 502.993 230.168 376.859 208.942C250.725 187.716 124.658 202.253 61.6236 209.522L-1.41035 216.791L-1.80543 2.20941L61.2417 2.09333C124.289 1.97725 250.383 1.74509 376.477 1.51293C502.571 1.28077 628.666 1.04861 754.76 0.816452C880.854 0.584292 1006.95 0.352132 1133.04 0.119973C1259.14 -0.112187 1385.23 -0.344347 1448.28 -0.460427L1511.33 -0.576507L1511.88 299.837Z" fill="#8958A3" fill-opacity="0.4"/>
<path id="Vector_3" fill-rule="evenodd" clip-rule="evenodd" d="M1512.17 17.9891L1475.68 37.2697C1440.44 56.546 1368.72 95.1028 1296.93 114.502C1223.88 133.906 1152.03 134.147 1080.15 126.726C1008.27 119.304 936.362 104.22 864.495 100.63C792.629 97.0401 719.54 104.949 647.686 105.191C575.833 105.432 503.953 98.0109 432.138 109.747C360.323 121.483 288.572 152.377 215.51 167.949C143.707 183.517 71.8537 183.758 36.5571 183.877L-9.18558e-05 184L-0.618557 0.0869607L35.9387 -0.0359745C71.2352 -0.15467 143.089 -0.396301 214.943 -0.637932C288.057 -0.883802 359.911 -1.12543 431.765 -1.36706C503.618 -1.60869 575.472 -1.85033 647.326 -2.09196C719.179 -2.33359 792.294 -2.57946 864.148 -2.82109C936.001 -3.06272 1007.86 -3.30435 1079.71 -3.54598C1151.56 -3.78761 1223.42 -4.02924 1296.53 -4.27511C1368.38 -4.51674 1440.24 -4.75837 1475.53 -4.87707L1512.09 -5L1512.17 17.9891Z" fill="#8958A3" fill-opacity="0.4"/>
</g>
</svg>
